<svg width="18" height="18" viewBox="0 0 18 18" fill="none" xmlns="http://www.w3.org/2000/svg">
<g clip-path="url(#clip0_28_340)">
<path d="M9.01022 0C9.71584 0.00780925 10.4187 0.0860864 11.1074 0.233576C11.4081 0.297961 11.633 0.538626 11.6671 0.83258L11.8307 2.24198C11.9047 2.88911 12.4738 3.37925 13.1522 3.37993C13.3344 3.38021 13.5149 3.34374 13.6833 3.27216L15.0299 2.70422C15.3099 2.58609 15.6371 2.65049 15.8461 2.86489C16.8192 3.86275 17.5439 5.05954 17.9656 6.36517C18.0566 6.64671 17.952 6.95266 17.7048 7.12756L16.5113 7.97227C16.1709 8.21245 15.9698 8.59387 15.9698 8.99956C15.9698 9.40516 16.1709 9.78658 16.5121 10.0273L17.7066 10.8723C17.9538 11.0471 18.0586 11.3531 17.9676 11.6348C17.546 12.9402 16.8217 14.1369 15.8492 15.1349C15.6403 15.3492 15.3134 15.4139 15.0333 15.296L13.6814 14.7273C13.2946 14.5647 12.8504 14.5885 12.4849 14.7914C12.1194 14.9942 11.8761 15.3519 11.8296 15.7548L11.6671 17.1641C11.6336 17.4547 11.4136 17.6938 11.1174 17.7614C9.72488 18.0795 8.27411 18.0795 6.88168 17.7614C6.58546 17.6938 6.36545 17.4547 6.33194 17.1641L6.16963 15.757C6.12197 15.3548 5.87834 14.9982 5.5131 14.796C5.14787 14.5939 4.7044 14.5702 4.31889 14.7318L2.96664 15.3006C2.68654 15.4185 2.35951 15.3539 2.15066 15.1393C1.17763 14.1402 0.453321 12.942 0.0322514 11.6352C-0.0584323 11.3538 0.0463544 11.048 0.293401 10.8732L1.48867 10.0277C1.82912 9.7875 2.0302 9.40609 2.0302 9.00048C2.0302 8.59479 1.82912 8.21337 1.48823 7.97291L0.293708 7.1288C0.0462871 6.95397 -0.0585957 6.64781 0.0324148 6.36609C0.454205 5.06046 1.1789 3.86368 2.15195 2.86581C2.36101 2.65142 2.6882 2.58701 2.96825 2.70514L4.31449 3.27298C4.70186 3.43622 5.14719 3.41156 5.51439 3.20557C5.88001 3.00194 6.12342 2.6439 6.17041 2.2409L6.33392 0.83258C6.36806 0.538478 6.59312 0.29773 6.89396 0.233484C7.58348 0.086234 8.28709 0.00798464 9.01022 0ZM8.9982 6.23074C7.40544 6.23074 6.1142 7.47057 6.1142 9.00002C6.1142 10.5294 7.40544 11.7693 8.9982 11.7693C10.5911 11.7693 11.8822 10.5294 11.8822 9.00002C11.8822 7.47057 10.5911 6.23074 8.9982 6.23074Z" fill="white"/>
</g>
<defs>
<clipPath id="clip0_28_340">
<rect width="18" height="18" fill="white"/>
</clipPath>
</defs>
</svg>
