<svg width="18" height="18" viewBox="0 0 18 18" fill="none" xmlns="http://www.w3.org/2000/svg">
<path d="M13.275 1.5C14.3468 1.5 15.224 2.36734 15.2953 3.46495L15.3 3.60938V14.1562C15.3 14.4151 15.5015 14.625 15.75 14.625C15.9709 14.625 16.1546 14.4592 16.1927 14.2405L16.2 14.1562L16.2005 4.32543C17.1645 4.4367 17.9245 5.25292 17.9947 6.26816L18 6.42188V13.4531C18 15.0778 16.7792 16.4055 15.241 16.4952L15.075 16.5H2.925C1.36527 16.5 0.0906751 15.2283 0.00462606 13.626L0 13.4531V3.60938C0 2.49294 0.832644 1.57909 1.88636 1.50487L2.025 1.5H13.275ZM6.52298 8.0625H3.37298C3.00019 8.0625 2.69798 8.37731 2.69798 8.76562V12.0469C2.69798 12.4352 3.00019 12.75 3.37298 12.75H6.52298C6.89577 12.75 7.19798 12.4352 7.19798 12.0469V8.76562C7.19798 8.37731 6.89577 8.0625 6.52298 8.0625ZM11.927 11.3438H9.67851L9.58698 11.3501C9.25749 11.3967 9.00351 11.6909 9.00351 12.0469C9.00351 12.4352 9.30573 12.75 9.67851 12.75H11.927L12.0186 12.7436C12.3481 12.697 12.602 12.4028 12.602 12.0469C12.602 11.6586 12.2998 11.3438 11.927 11.3438ZM5.84798 9.46875V11.3438H4.04798V9.46875H5.84798ZM11.9258 8.0625L9.67734 8.06672L9.58572 8.07328C9.25632 8.12044 9.00297 8.41509 9.00351 8.77106C9.00423 9.15938 9.30699 9.47363 9.67977 9.47297L11.9282 9.46875L12.0198 9.46219C12.3492 9.41503 12.6026 9.12038 12.602 8.76441C12.6013 8.376 12.2986 8.06184 11.9258 8.0625ZM11.927 4.78545H3.37298L3.28139 4.79186C2.95192 4.83843 2.69798 5.13261 2.69798 5.48858C2.69798 5.8769 3.00019 6.1917 3.37298 6.1917H11.927L12.0186 6.18528C12.3481 6.13872 12.602 5.84453 12.602 5.48858C12.602 5.10024 12.2998 4.78545 11.927 4.78545Z" fill="#ffffff"/>
</svg>
