<svg width="20" height="20" viewBox="0 0 20 20" fill="none" xmlns="http://www.w3.org/2000/svg">
<path fill-rule="evenodd" clip-rule="evenodd" d="M6.93692 0L17 10.031L15.9874 10.9899C14.4918 12.4062 12.2365 14.6541 10.345 16.5584C9.40145 17.5083 8.55213 18.3691 7.93868 18.9923C7.63198 19.3039 7.38432 19.5561 7.21342 19.7303L6.94898 20L5.97432 19.0526C4.99991 18.105 4.99995 18.105 5 18.1049L5.267 17.8326C5.43878 17.6575 5.68744 17.4043 5.99523 17.0916C6.61075 16.4663 7.46308 15.6025 8.41025 14.6489C9.91976 13.1291 11.6796 11.3717 13.1063 9.98779L5.01172 1.91906L6.93692 0Z" fill="#ffffff"/>
</svg>
