<svg width="18" height="18" viewBox="0 0 18 18" fill="none" xmlns="http://www.w3.org/2000/svg">
<path d="M0 3.29779C0 1.89069 1.1081 0.75 2.475 0.75H15.525C16.8919 0.75 18 1.89069 18 3.29779V11.1728C18 12.5799 16.8919 13.7206 15.525 13.7206H2.475C1.1081 13.7206 0 12.5799 0 11.1728V3.29779Z" fill="white"/>
<path d="M3.375 15.1103C3.00221 15.1103 2.7 15.4214 2.7 15.8051C2.7 16.1889 3.00221 16.5 3.375 16.5H14.625C14.9978 16.5 15.3 16.1889 15.3 15.8051C15.3 15.4214 14.9978 15.1103 14.625 15.1103H3.375Z" fill="white"/>
</svg>
