<svg width="18" height="18" viewBox="0 0 18 18" fill="none" xmlns="http://www.w3.org/2000/svg">
<g clip-path="url(#clip0_27_316)">
<path d="M11.4786 7.16667C12.3484 7.16667 13.0536 7.88488 13.0536 8.77083V13.1241C13.0536 15.4027 11.2399 17.25 9.0027 17.25C6.76541 17.25 4.95174 15.4027 4.95174 13.1241V8.77083C4.95174 7.88488 5.65689 7.16667 6.52674 7.16667H11.4786ZM4.61815 7.1658C4.30365 7.55332 4.10072 8.03823 4.05951 8.56953L4.05174 8.77083V13.1241C4.05174 13.9001 4.22387 14.6353 4.53138 15.292C4.23519 15.3736 3.92309 15.4167 3.60112 15.4167C1.61228 15.4167 0 13.7746 0 11.7489V8.77083C0 7.92915 0.636399 7.2389 1.44582 7.17198L1.575 7.16667L4.61815 7.1658ZM13.3872 7.1658L16.425 7.16667C17.2948 7.16667 18 7.88488 18 8.77083V11.75C18 13.775 16.3882 15.4167 14.4 15.4167C14.0792 15.4167 13.7682 15.374 13.4722 15.2937C13.7427 14.7182 13.9084 14.0831 13.9456 13.4132L13.9536 13.1241V8.77083C13.9536 8.16098 13.741 7.60181 13.3872 7.1658ZM9 0.75C10.4912 0.75 11.7 1.98122 11.7 3.5C11.7 5.01878 10.4912 6.25 9 6.25C7.50879 6.25 6.3 5.01878 6.3 3.5C6.3 1.98122 7.50879 0.75 9 0.75ZM14.85 1.66667C16.0926 1.66667 17.1 2.69268 17.1 3.95833C17.1 5.22398 16.0926 6.25 14.85 6.25C13.6074 6.25 12.6 5.22398 12.6 3.95833C12.6 2.69268 13.6074 1.66667 14.85 1.66667ZM3.15 1.66667C4.39264 1.66667 5.4 2.69268 5.4 3.95833C5.4 5.22398 4.39264 6.25 3.15 6.25C1.90736 6.25 0.9 5.22398 0.9 3.95833C0.9 2.69268 1.90736 1.66667 3.15 1.66667Z" fill="white"/>
</g>
<defs>
<clipPath id="clip0_27_316">
<rect width="18" height="18" fill="white"/>
</clipPath>
</defs>
</svg>
