<svg width="18" height="18" viewBox="0 0 18 18" fill="none" xmlns="http://www.w3.org/2000/svg">
<g clip-path="url(#clip0_27_323)">
<path d="M8.08632 1.04816C8.16804 0.557884 7.83684 0.0941573 7.34661 0.0124025C6.85629 -0.0693613 6.39256 0.261816 6.3108 0.752093L5.53606 5.39787L1.79943 5.40007C1.30237 5.40036 0.899667 5.80354 0.899964 6.30058C0.900252 6.79764 1.30343 7.20035 1.80049 7.20008L5.23587 7.19801L4.63548 10.7983L0.899595 10.8C0.402543 10.8002 -0.000224906 11.2033 9.42236e-08 11.7004C0.000225094 12.1974 0.403344 12.6002 0.900405 12.6L4.33529 12.5985L3.60931 16.9519C3.52754 17.4421 3.85872 17.9059 4.34901 17.9876C4.83929 18.0694 5.30302 17.7382 5.38479 17.2479L6.16028 12.5977L10.6383 12.5956L9.91224 16.952C9.83052 17.4422 10.1617 17.906 10.652 17.9876C11.1423 18.0693 11.606 17.7381 11.6877 17.2479L12.4632 12.5948L16.2004 12.5932C16.6974 12.5929 17.1002 12.1898 17.1 11.6927C17.0998 11.1957 16.6966 10.7929 16.1996 10.7932L12.7633 10.7947L13.3635 7.19324L17.1004 7.19103C17.5975 7.19074 18.0003 6.78757 18 6.29051C17.9996 5.79347 17.5965 5.39077 17.0995 5.39106L13.6635 5.39308L14.3877 1.04809C14.4694 0.557794 14.1382 0.0941033 13.648 0.0123845C13.1576 -0.0693253 12.694 0.261888 12.6122 0.752174L11.8385 5.39415L7.3611 5.39679L8.08632 1.04816ZM7.06091 7.19694L11.5385 7.19431L10.9383 10.7955L6.46047 10.7975L7.06091 7.19694Z" fill="white"/>
</g>
<defs>
<clipPath id="clip0_27_323">
<rect width="18" height="18" fill="white"/>
</clipPath>
</defs>
</svg>
