<svg width="18" height="18" viewBox="0 0 18 18" fill="none" xmlns="http://www.w3.org/2000/svg">
<g clip-path="url(#clip0_28_334)">
<path d="M9 0C13.9705 0 18 4.02943 18 9V15.3C18 16.7912 16.7912 18 15.3 18H12.6C12.1029 18 11.7 17.5971 11.7 17.1V11.7C11.7 11.2029 12.1029 10.8 12.6 10.8H16.65V9C16.65 4.77502 13.225 1.35 9 1.35C4.77502 1.35 1.35 4.77502 1.35 9V10.8H5.4C5.89705 10.8 6.3 11.2029 6.3 11.7V17.1C6.3 17.5971 5.89705 18 5.4 18H2.7C1.20883 18 0 16.7912 0 15.3V9C0 4.02943 4.02943 0 9 0Z" fill="white"/>
</g>
<defs>
<clipPath id="clip0_28_334">
<rect width="18" height="18" fill="white"/>
</clipPath>
</defs>
</svg>
