<svg width="18" height="18" viewBox="0 0 18 18" fill="none" xmlns="http://www.w3.org/2000/svg">
<g clip-path="url(#clip0_27_315)">
<path d="M11.5378 0C11.8591 0 12.1246 0.241843 12.1666 0.555626L12.1725 0.642857L12.172 1.28486L12.8059 1.28559C13.8573 1.28596 14.7097 2.14915 14.71 3.2142L14.7104 6.9228C14.2207 6.60975 13.6406 6.42857 13.0187 6.42857C11.637 6.42857 10.4615 7.323 10.0258 8.57143H3.92156L3.83544 8.57726C3.52565 8.61986 3.28687 8.88883 3.28687 9.21429C3.28687 9.53974 3.52565 9.80871 3.83544 9.85131L3.92156 9.85714H9.85216C9.90708 10.7024 10.2845 11.4584 10.8611 12H10.0568C8.88839 12 7.94112 12.9594 7.94112 14.1429V14.5714C7.94112 15.5148 8.29862 16.4163 8.93417 17.1468H2.6552C1.60375 17.1466 0.751379 16.2833 0.7511 15.2183L0.75 3.21446C0.749729 2.14929 1.60214 1.28559 2.65379 1.28559L3.28624 1.28486L3.28672 0.642857C3.28672 0.28782 3.57088 0 3.92141 0C4.24274 0 4.50829 0.241843 4.55031 0.555626L4.55611 0.642857L4.55563 1.28486H7.09607L7.09649 0.642857C7.09649 0.28782 7.38072 0 7.73119 0C8.05256 0 8.31808 0.241843 8.36014 0.555626L8.36589 0.642857L8.36547 1.28486H10.9026L10.9031 0.642857C10.9031 0.28782 11.1872 0 11.5378 0ZM7.30515 12H3.92156L3.83544 12.0058C3.52565 12.0484 3.28687 12.3174 3.28687 12.6429C3.28687 12.9683 3.52565 13.2373 3.83544 13.2799L3.92156 13.2857H7.30515L7.39121 13.2799C7.70107 13.2373 7.93977 12.9683 7.93977 12.6429C7.93977 12.3174 7.70107 12.0484 7.39121 12.0058L7.30515 12ZM11.5364 5.14286H3.92156L3.83544 5.14873C3.52565 5.19129 3.28687 5.46026 3.28687 5.78571C3.28687 6.11117 3.52565 6.38013 3.83544 6.4227L3.92156 6.42857H11.5364L11.6226 6.4227C11.9323 6.38013 12.1711 6.11117 12.1711 5.78571C12.1711 5.46026 11.9323 5.19129 11.6226 5.14873L11.5364 5.14286ZM13.0187 7.28571C13.6852 7.28571 14.2862 7.56943 14.7104 8.02414C15.1044 8.44637 15.3459 9.01603 15.3459 9.64286C15.3459 10.2695 15.1045 10.8391 14.7107 11.2612C14.2864 11.7161 13.6853 12 13.0187 12C11.8047 12 10.8079 11.0585 10.7009 9.85714C10.6947 9.7866 10.6915 9.71511 10.6915 9.64286C10.6915 9.25706 10.783 8.89286 10.9452 8.57143C11.3305 7.80823 12.1144 7.28571 13.0187 7.28571ZM8.78736 14.1429C8.78736 13.4702 9.29742 12.9182 9.94718 12.8619C9.98332 12.8588 10.0199 12.8571 10.0568 12.8571H15.9806C16.6816 12.8571 17.25 13.4328 17.25 14.1429V14.5714C17.25 16.2612 15.6764 18 13.0187 18C11.5097 18 10.3501 17.4394 9.62971 16.6455C9.08132 16.0413 8.78736 15.3017 8.78736 14.5714V14.1429Z" fill="white"/>
</g>
<defs>
<clipPath id="clip0_27_315">
<rect width="18" height="18" fill="white"/>
</clipPath>
</defs>
</svg>
