<svg width="20" height="20" viewBox="0 0 20 20" fill="none" xmlns="http://www.w3.org/2000/svg">
<path fill-rule="evenodd" clip-rule="evenodd" d="M13.0631 0L3 10.031L4.01259 10.9899C5.50818 12.4062 7.76353 14.6541 9.655 16.5584C10.5985 17.5083 11.4479 18.3691 12.0613 18.9923C12.368 19.3039 12.6157 19.5561 12.7866 19.7303L13.051 20L14.0257 19.0526C15.0001 18.105 15.0001 18.105 15 18.1049L14.733 17.8326C14.5612 17.6575 14.3126 17.4043 14.0048 17.0916C13.3892 16.4663 12.5369 15.6025 11.5897 14.6489C10.0802 13.1291 8.32041 11.3717 6.89375 9.98779L14.9883 1.91906L13.0631 0Z" fill="#212521"/>
</svg>
