<svg width="18" height="18" viewBox="0 0 18 18" fill="none" xmlns="http://www.w3.org/2000/svg">
<g clip-path="url(#clip0_27_321)">
<path d="M3.25 0.75H14.75C16.483 0.75 17.8992 2.14884 17.9949 3.91138L18 4.10156V13.8984C18 15.6856 16.6435 17.146 14.9344 17.2447L14.75 17.25H3.25C1.51697 17.25 0.10075 15.8511 0.00514007 14.0886L0 13.8984V4.10156C0 2.31438 1.35645 0.853898 3.06558 0.7553L3.25 0.75ZM7.0528 6.50995C7.0181 6.58155 7 6.6605 7 6.74055V11.2595C7 11.5442 7.2239 11.7751 7.5 11.7751C7.5776 11.7751 7.6542 11.7564 7.7236 11.7206L12.1056 9.46117C12.3526 9.33382 12.4527 9.02413 12.3292 8.76941C12.2808 8.66959 12.2023 8.58874 12.1056 8.53883L7.7236 6.27936C7.4766 6.15201 7.1763 6.25525 7.0528 6.50995Z" fill="white"/>
</g>
<defs>
<clipPath id="clip0_27_321">
<rect width="18" height="18" fill="white"/>
</clipPath>
</defs>
</svg>
