<svg width="40" height="40" viewBox="0 0 40 40" fill="none" xmlns="http://www.w3.org/2000/svg">
<g clip-path="url(#clip0_16_2)">
<path d="M20 22.8125C21.5533 22.8125 22.8125 21.5533 22.8125 20C22.8125 18.4467 21.5533 17.1875 20 17.1875C18.4467 17.1875 17.1875 18.4467 17.1875 20C17.1875 21.5533 18.4467 22.8125 20 22.8125Z" fill="white"/>
<path d="M14.8625 26.7007C14.6196 26.7009 14.3794 26.6496 14.1577 26.5502C13.9361 26.4508 13.738 26.3056 13.5766 26.1241C12.0772 24.4367 11.249 22.2579 11.249 20.0007C11.249 17.7434 12.0772 15.5646 13.5766 13.8772C13.7253 13.7041 13.907 13.5623 14.111 13.4601C14.3151 13.358 14.5375 13.2975 14.7652 13.2822C14.9929 13.2669 15.2214 13.2971 15.4373 13.371C15.6532 13.445 15.8522 13.5612 16.0228 13.7129C16.1933 13.8646 16.3319 14.0487 16.4305 14.2545C16.5291 14.4604 16.5857 14.6838 16.597 14.9117C16.6084 15.1397 16.5742 15.3676 16.4965 15.5822C16.4188 15.7968 16.2992 15.9937 16.1445 16.1616C15.2046 17.2197 14.6855 18.5858 14.6855 20.001C14.6855 21.4163 15.2046 22.7824 16.1445 23.8405C16.3644 24.0881 16.5082 24.394 16.5584 24.7213C16.6086 25.0486 16.5632 25.3835 16.4276 25.6856C16.292 25.9878 16.072 26.2443 15.7941 26.4244C15.5161 26.6044 15.1921 26.7004 14.8609 26.7007H14.8625Z" fill="white"/>
<path d="M25.1375 26.7007C24.8064 26.7004 24.4823 26.6044 24.2044 26.4244C23.9265 26.2443 23.7065 25.9878 23.5709 25.6856C23.4353 25.3835 23.3899 25.0486 23.4401 24.7213C23.4903 24.394 23.634 24.0881 23.8539 23.8405C24.7938 22.7824 25.313 21.4163 25.313 20.001C25.313 18.5858 24.7938 17.2197 23.8539 16.1616C23.6993 15.9937 23.5796 15.7968 23.5019 15.5822C23.4243 15.3676 23.3901 15.1397 23.4014 14.9117C23.4127 14.6838 23.4694 14.4604 23.568 14.2545C23.6666 14.0487 23.8052 13.8646 23.9757 13.7129C24.1462 13.5612 24.3452 13.445 24.5611 13.371C24.777 13.2971 25.0055 13.2669 25.2332 13.2822C25.4609 13.2975 25.6833 13.358 25.8874 13.4601C26.0915 13.5623 26.2732 13.7041 26.4219 13.8772C27.9213 15.5646 28.7494 17.7434 28.7494 20.0007C28.7494 22.2579 27.9213 24.4367 26.4219 26.1241C26.2606 26.3054 26.0628 26.4505 25.8414 26.5499C25.6201 26.6493 25.3802 26.7007 25.1375 26.7007Z" fill="white"/>
<path d="M10.882 30.6816C10.6462 30.6818 10.413 30.6333 10.1968 30.5392C9.98064 30.4451 9.78623 30.3074 9.62575 30.1347C7.05566 27.3852 5.62598 23.762 5.62598 19.9984C5.62598 16.2347 7.05566 12.6116 9.62575 9.86204C9.77958 9.69577 9.96476 9.56156 10.1706 9.46711C10.3765 9.37265 10.599 9.31983 10.8254 9.31166C11.0518 9.3035 11.2775 9.34016 11.4897 9.41954C11.7018 9.49892 11.8962 9.61945 12.0616 9.7742C12.227 9.92895 12.3602 10.1149 12.4535 10.3213C12.5468 10.5277 12.5984 10.7505 12.6053 10.9769C12.6122 11.2033 12.5743 11.4288 12.4937 11.6405C12.4132 11.8522 12.2916 12.0459 12.1359 12.2105C10.1614 14.3232 9.06304 17.107 9.06304 19.9988C9.06304 22.8905 10.1614 25.6743 12.1359 27.787C12.364 28.0318 12.5158 28.3378 12.5725 28.6675C12.6292 28.9972 12.5885 29.3364 12.4552 29.6433C12.322 29.9502 12.1021 30.2115 11.8225 30.3953C11.5429 30.579 11.2158 30.6772 10.8812 30.6777L10.882 30.6816Z" fill="white"/>
<path d="M29.1179 30.6816C28.7834 30.6811 28.4562 30.5829 28.1766 30.3992C27.897 30.2154 27.6771 29.9541 27.5439 29.6472C27.4107 29.3403 27.37 29.0011 27.4267 28.6714C27.4834 28.3417 27.6351 28.0357 27.8632 27.7909C29.8378 25.6782 30.9361 22.8944 30.9361 20.0027C30.9361 17.1109 29.8378 14.3271 27.8632 12.2144C27.7076 12.0498 27.586 11.8561 27.5054 11.6444C27.4249 11.4327 27.387 11.2072 27.3939 10.9808C27.4008 10.7544 27.4524 10.5316 27.5457 10.3252C27.639 10.1188 27.7722 9.93286 27.9376 9.77811C28.103 9.62336 28.2974 9.50283 28.5095 9.42345C28.7216 9.34407 28.9474 9.30741 29.1738 9.31557C29.4001 9.32373 29.6226 9.37656 29.8285 9.47101C30.0344 9.56546 30.2196 9.69968 30.3734 9.86594C32.9435 12.6155 34.3732 16.2386 34.3732 20.0023C34.3732 23.7659 32.9435 27.3891 30.3734 30.1386C30.2127 30.3105 30.0182 30.4475 29.8022 30.5409C29.5862 30.6343 29.3533 30.6822 29.1179 30.6816Z" fill="white"/>
<path d="M33.5156 34.219C33.1838 34.2189 32.8591 34.1228 32.5808 33.9423C32.3024 33.7617 32.0822 33.5045 31.9468 33.2016C31.8115 32.8987 31.7666 32.563 31.8178 32.2352C31.869 31.9074 32.0139 31.6014 32.2351 31.3541C35.0224 28.229 36.5628 24.1878 36.5628 20.0002C36.5628 15.8127 35.0224 11.7715 32.2351 8.64632C31.9409 8.30529 31.7922 7.86237 31.8212 7.41286C31.8502 6.96335 32.0545 6.54318 32.3901 6.24276C32.7257 5.94235 33.1659 5.7857 33.6159 5.80653C34.0658 5.82736 34.4896 6.024 34.7961 6.35413C38.1473 10.1096 39.9995 14.9669 39.9995 20.0002C39.9995 25.0335 38.1473 29.8909 34.7961 33.6463C34.6349 33.8264 34.4376 33.9705 34.2169 34.0692C33.9963 34.1679 33.7573 34.2189 33.5156 34.219Z" fill="white"/>
<path d="M6.48435 34.219C6.24234 34.2194 6.00298 34.1686 5.78201 34.0699C5.56104 33.9712 5.36348 33.8269 5.20232 33.6463C1.85106 29.8909 -0.00109863 25.0335 -0.00109863 20.0002C-0.00109863 14.9669 1.85106 10.1096 5.20232 6.35413C5.50877 6.024 5.93257 5.82736 6.38254 5.80653C6.8325 5.7857 7.27266 5.94235 7.6083 6.24276C7.94393 6.54318 8.14822 6.96335 8.1772 7.41286C8.20618 7.86237 8.05754 8.30529 7.76326 8.64632C4.97598 11.7715 3.43564 15.8127 3.43564 20.0002C3.43564 24.1878 4.97598 28.229 7.76326 31.3541C7.98441 31.6013 8.12934 31.9072 8.18055 32.2348C8.23176 32.5625 8.18707 32.898 8.05188 33.2009C7.91668 33.5037 7.69675 33.761 7.41861 33.9416C7.14047 34.1223 6.81601 34.2186 6.48435 34.219Z" fill="white"/>
</g>
<defs>
<clipPath id="clip0_16_2">
<rect width="40" height="40" fill="white"/>
</clipPath>
</defs>
</svg>
