<svg width="62" height="50" viewBox="0 0 62 50" fill="none" xmlns="http://www.w3.org/2000/svg">
<g clip-path="url(#clip0_8_6)">
<path d="M31.2812 15.0707H25.7217V23.0136H30.4044C34.0236 23.0136 36.0197 21.5393 36.0197 18.9039C36.0197 16.4344 34.3035 15.0707 31.2812 15.0707Z" fill="white"/>
<path d="M25.7217 26.165V34.9188H31.4863C35.2549 34.9188 37.251 33.3892 37.251 30.5143C37.251 27.6393 35.1988 26.165 31.2438 26.165H25.7217Z" fill="white"/>
<path fill-rule="evenodd" clip-rule="evenodd" d="M12.8774 0C9.33972 0 6.72252 3.1348 6.8395 6.53431C6.95187 9.79988 6.80595 14.03 5.75389 17.4792C4.69868 20.939 2.91461 23.1259 0 23.4069V26.5931C2.91473 26.8741 4.69868 29.061 5.75389 32.5208C6.80595 35.97 6.95187 40.2001 6.83962 43.4658C6.72252 46.8652 9.33972 50 12.8774 50H49.1271C52.6648 50 55.282 46.8652 55.165 43.4658C55.0526 40.2001 55.1985 35.97 56.2505 32.5208C57.3058 29.061 59.0854 26.8741 62 26.5931V23.4069C59.0854 23.1259 57.3058 20.939 56.2505 17.4792C55.1985 14.03 55.0526 9.79988 55.165 6.53431C55.282 3.1348 52.6648 0 49.1271 0H12.8774ZM41.5232 30.7723C41.5232 35.4533 38.0719 38.2913 32.3445 38.2913H21.5427V11.6981H32.2886C37.0645 11.6981 40.1987 14.3152 40.1987 18.3327C40.1987 21.1523 38.0905 23.6771 35.4041 24.1193V24.2668C39.0606 24.6723 41.5232 27.2339 41.5232 30.7723Z" fill="white"/>
</g>
<defs>
<clipPath id="clip0_8_6">
<rect width="62" height="50" fill="white"/>
</clipPath>
</defs>
</svg>
