<svg width="18" height="18" viewBox="0 0 18 18" fill="none" xmlns="http://www.w3.org/2000/svg">
<path d="M15.075 16.5H2.925C1.36527 16.5 0.0906751 15.2283 0.00462606 13.626L0 13.4531V3.60938C0 2.49294 0.832644 1.57909 1.88636 1.50487L2.025 1.5H13.275C14.3468 1.5 15.224 2.36734 15.2953 3.46495L15.3 3.60938V4.3125H15.975C17.0468 4.3125 17.924 5.17984 17.9953 6.27745L18 6.42188V13.4531C18 15.0778 16.7792 16.4055 15.241 16.4952L15.075 16.5ZM2.925 15.0938H15.075C15.9014 15.0938 16.5791 14.4308 16.6448 13.5877L16.65 13.4531V6.42188C16.65 6.06591 16.396 5.77173 16.0666 5.72517L15.975 5.71875H15.3V12.9844C15.3 13.3403 15.046 13.6345 14.7166 13.6811L14.625 13.6875C14.2833 13.6875 14.0008 13.4229 13.9561 13.0798L13.95 12.9844V3.60938C13.95 3.25341 13.696 2.95923 13.3666 2.91267L13.275 2.90625H2.025C1.68327 2.90625 1.40086 3.17077 1.35616 3.51397L1.35 3.60938V13.4531C1.35 14.3139 1.9864 15.0199 2.79582 15.0883L2.925 15.0938ZM9.2214 11.3438H11.927C12.2998 11.3438 12.602 11.6586 12.602 12.0469C12.602 12.4028 12.3481 12.697 12.0186 12.7436L11.927 12.75H9.2214C8.84862 12.75 8.5464 12.4352 8.5464 12.0469C8.5464 11.6909 8.80038 11.3967 9.12978 11.3501L9.2214 11.3438ZM6.51895 8.06672C6.89175 8.06672 7.19395 8.38153 7.19395 8.76984V12.0469C7.19395 12.4352 6.89175 12.75 6.51895 12.75H3.37298C3.00019 12.75 2.69798 12.4352 2.69798 12.0469V8.76984C2.69798 8.38153 3.00019 8.06672 3.37298 8.06672H6.51895ZM5.84395 9.47297H4.04798V11.3438H5.84395V9.47297ZM9.2214 8.06672H11.927C12.2998 8.06672 12.602 8.38153 12.602 8.76984C12.602 9.12581 12.3481 9.42 12.0186 9.4665L11.927 9.47297H9.2214C8.84862 9.47297 8.5464 9.15816 8.5464 8.76984C8.5464 8.41388 8.80038 8.11969 9.12978 8.07309L9.2214 8.06672ZM3.37298 4.78357H11.927C12.2998 4.78357 12.602 5.09837 12.602 5.48669C12.602 5.84266 12.3481 6.13684 12.0186 6.1834L11.927 6.18982H3.37298C3.00019 6.18982 2.69798 5.87502 2.69798 5.48669C2.69798 5.13073 2.95192 4.83654 3.28139 4.78999L3.37298 4.78357Z" fill="#fff"/>
</svg>
